<?xml version="1.0" encoding="UTF-8" standalone="no"?><!DOCTYPE svg PUBLIC "-//W3C//DTD SVG 1.1//EN" "http://www.w3.org/Graphics/SVG/1.1/DTD/svg11.dtd"><svg width="100%" height="100%" viewBox="0 0 834 516" version="1.1" xmlns="http://www.w3.org/2000/svg" xmlns:xlink="http://www.w3.org/1999/xlink" xml:space="preserve" xmlns:serif="http://www.serif.com/" style="fill-rule:evenodd;clip-rule:evenodd;stroke-linejoin:round;stroke-miterlimit:2;"><g id="Layer_2"></g><g id="Layer_21" serif:id="Layer_2"><g id="Layer_1-2" opacity="0.63"><g id="right"><path d="M17.299,235.719l201.971,-233.556l131.151,-2.163l-201.97,233.555l-131.152,2.164Z" style="fill:#5fadbd;fill-rule:nonzero;"/><path d="M350.421,-0l-201.97,233.555l-131.152,2.164l333.122,-235.719Z" style="fill:#5fadbd;fill-rule:nonzero;"/><path d="M173.963,405.372l-156.664,-169.653l131.152,-2.164l156.663,169.653l-131.151,2.164Z" style="fill:#5fadbd;fill-rule:nonzero;"/><path d="M148.451,233.555l156.663,169.653l-131.151,2.164l-25.512,-171.817Z" style="fill:#5fadbd;fill-rule:nonzero;"/></g><g id="left"><path d="M833.213,279.59l-202.258,233.56l-131.152,2.164l202.258,-233.56l131.152,-2.164Z" style="fill:#851bcf;fill-rule:nonzero;"/><path d="M499.803,515.314l202.258,-233.56l131.152,-2.164l-333.41,235.724Z" style="fill:#851bcf;fill-rule:nonzero;"/><path d="M676.554,110.224l156.659,169.366l-131.152,2.164l-156.946,-169.362l131.439,-2.168Z" style="fill:#851bcf;fill-rule:nonzero;"/><path d="M702.061,281.754l-156.946,-169.362l131.439,-2.168l25.507,171.53Z" style="fill:#851bcf;fill-rule:nonzero;"/></g></g><text x="17.854px" y="418.735px" style="font-family:'CinderelaPersonalUse-Regular', 'Cinderela Personal Use';font-size:283.202px;fill:#fff;">Artt</text></g></svg>